<?xml version="1.0" encoding="UTF-8"?>
<svg xmlns="http://www.w3.org/2000/svg" width="416" height="361" viewBox="0 0 416 361">
  <path d="M 383.00 285.00 L 383.00 284.00 L 380.00 283.00 L 378.00 281.00 L 362.00 273.00 L 360.00 273.00 L 353.00 269.00 L 351.00 269.00 L 342.00 282.00 L 330.00 294.00 L 320.00 301.00 L 315.00 303.00 L 313.00 305.00 L 307.00 308.00 L 305.00 308.00 L 295.00 312.00 L 292.00 312.00 L 291.00 313.00 L 279.00 314.00 L 278.00 315.00 L 253.00 315.00 L 252.00 314.00 L 241.00 313.00 L 240.00 312.00 L 237.00 312.00 L 236.00 311.00 L 225.00 308.00 L 213.00 302.00 L 198.00 291.00 L 187.00 280.00 L 176.00 264.00 L 169.00 249.00 L 169.00 247.00 L 167.00 243.00 L 167.00 239.00 L 168.00 238.00 L 283.00 238.00 L 285.00 240.00 L 288.00 246.00 L 295.00 250.00 L 303.00 250.00 L 309.00 247.00 L 313.00 242.00 L 313.00 240.00 L 314.00 239.00 L 314.00 232.00 L 313.00 231.00 L 313.00 229.00 L 312.00 227.00 L 305.00 221.00 L 303.00 221.00 L 302.00 220.00 L 295.00 220.00 L 288.00 224.00 L 284.00 232.00 L 73.00 232.00 L 72.00 233.00 L 73.00 238.00 L 128.00 238.00 L 129.00 239.00 L 129.00 243.00 L 132.00 251.00 L 133.00 258.00 L 138.00 268.00 L 138.00 270.00 L 142.00 278.00 L 144.00 280.00 L 144.00 282.00 L 159.00 303.00 L 173.00 317.00 L 192.00 331.00 L 212.00 341.00 L 214.00 341.00 L 221.00 344.00 L 224.00 344.00 L 228.00 346.00 L 232.00 346.00 L 233.00 347.00 L 238.00 347.00 L 239.00 348.00 L 244.00 348.00 L 245.00 349.00 L 254.00 349.00 L 255.00 350.00 L 277.00 350.00 L 278.00 349.00 L 287.00 349.00 L 288.00 348.00 L 298.00 347.00 L 299.00 346.00 L 306.00 345.00 L 307.00 344.00 L 318.00 341.00 L 321.00 339.00 L 323.00 339.00 L 340.00 330.00 L 351.00 322.00 L 356.00 317.00 L 357.00 317.00 L 373.00 300.00 Z M 297.00 226.00 L 304.00 227.00 L 308.00 232.00 L 308.00 238.00 L 307.00 240.00 L 302.00 244.00 L 296.00 244.00 L 294.00 243.00 L 290.00 237.00 L 290.00 233.00 L 292.00 229.00 Z M 381.00 128.00 L 372.00 114.00 L 355.00 97.00 L 339.00 85.00 L 321.00 76.00 L 319.00 76.00 L 316.00 74.00 L 314.00 74.00 L 304.00 70.00 L 301.00 70.00 L 297.00 68.00 L 285.00 67.00 L 284.00 66.00 L 272.00 66.00 L 271.00 65.00 L 270.00 66.00 L 268.00 65.00 L 267.00 66.00 L 251.00 66.00 L 250.00 67.00 L 236.00 68.00 L 235.00 69.00 L 231.00 69.00 L 230.00 70.00 L 227.00 70.00 L 226.00 71.00 L 218.00 73.00 L 215.00 75.00 L 210.00 76.00 L 201.00 81.00 L 199.00 81.00 L 179.00 94.00 L 162.00 110.00 L 162.00 111.00 L 157.00 116.00 L 152.00 124.00 L 149.00 127.00 L 138.00 147.00 L 138.00 149.00 L 134.00 157.00 L 133.00 163.00 L 130.00 170.00 L 130.00 175.00 L 129.00 176.00 L 128.00 186.00 L 127.00 187.00 L 127.00 194.00 L 126.00 195.00 L 42.00 195.00 L 40.00 193.00 L 37.00 187.00 L 33.00 184.00 L 31.00 184.00 L 30.00 183.00 L 22.00 183.00 L 17.00 185.00 L 13.00 189.00 L 10.00 196.00 L 10.00 199.00 L 13.00 207.00 L 16.00 210.00 L 22.00 213.00 L 30.00 213.00 L 34.00 211.00 L 39.00 206.00 L 40.00 203.00 L 42.00 201.00 L 251.00 201.00 L 257.00 210.00 L 263.00 213.00 L 270.00 213.00 L 276.00 210.00 L 280.00 205.00 L 280.00 203.00 L 281.00 202.00 L 281.00 194.00 L 278.00 188.00 L 273.00 184.00 L 271.00 184.00 L 270.00 183.00 L 262.00 183.00 L 255.00 187.00 L 252.00 193.00 L 250.00 195.00 L 165.00 195.00 L 164.00 194.00 L 165.00 186.00 L 167.00 181.00 L 168.00 172.00 L 171.00 166.00 L 171.00 164.00 L 175.00 154.00 L 185.00 139.00 L 191.00 133.00 L 191.00 132.00 L 205.00 119.00 L 214.00 113.00 L 228.00 106.00 L 234.00 105.00 L 238.00 103.00 L 246.00 102.00 L 247.00 101.00 L 257.00 101.00 L 258.00 100.00 L 274.00 100.00 L 275.00 101.00 L 285.00 101.00 L 286.00 102.00 L 293.00 103.00 L 294.00 104.00 L 305.00 107.00 L 317.00 113.00 L 328.00 121.00 L 341.00 134.00 L 350.00 147.00 L 358.00 143.00 L 373.00 133.00 L 380.00 130.00 Z M 264.00 189.00 L 269.00 189.00 L 271.00 190.00 L 275.00 195.00 L 275.00 201.00 L 274.00 203.00 L 269.00 207.00 L 264.00 207.00 L 258.00 202.00 L 258.00 194.00 Z M 23.00 189.00 L 30.00 190.00 L 34.00 194.00 L 34.00 196.00 L 35.00 197.00 L 34.00 202.00 L 28.00 207.00 L 23.00 207.00 L 21.00 206.00 L 17.00 202.00 L 17.00 200.00 L 16.00 199.00 L 17.00 194.00 Z" fill="#000000" stroke="none" fill-rule="evenodd"/>
</svg>
