<?xml version="1.0" encoding="UTF-8"?>
<svg xmlns="http://www.w3.org/2000/svg" width="1464" height="361" viewBox="0 0 1464 361">
  <path d="M 383.00 285.00 L 383.00 284.00 L 380.00 283.00 L 378.00 281.00 L 362.00 273.00 L 360.00 273.00 L 353.00 269.00 L 351.00 269.00 L 342.00 282.00 L 330.00 294.00 L 320.00 301.00 L 315.00 303.00 L 313.00 305.00 L 307.00 308.00 L 305.00 308.00 L 295.00 312.00 L 292.00 312.00 L 291.00 313.00 L 279.00 314.00 L 278.00 315.00 L 253.00 315.00 L 252.00 314.00 L 241.00 313.00 L 240.00 312.00 L 237.00 312.00 L 236.00 311.00 L 225.00 308.00 L 213.00 302.00 L 198.00 291.00 L 187.00 280.00 L 176.00 264.00 L 169.00 249.00 L 169.00 247.00 L 167.00 243.00 L 167.00 239.00 L 168.00 238.00 L 283.00 238.00 L 285.00 240.00 L 288.00 246.00 L 295.00 250.00 L 303.00 250.00 L 309.00 247.00 L 313.00 242.00 L 313.00 240.00 L 314.00 239.00 L 314.00 232.00 L 313.00 231.00 L 313.00 229.00 L 312.00 227.00 L 305.00 221.00 L 303.00 221.00 L 302.00 220.00 L 295.00 220.00 L 288.00 224.00 L 284.00 232.00 L 73.00 232.00 L 72.00 233.00 L 73.00 238.00 L 128.00 238.00 L 129.00 239.00 L 129.00 243.00 L 132.00 251.00 L 133.00 258.00 L 138.00 268.00 L 138.00 270.00 L 142.00 278.00 L 144.00 280.00 L 144.00 282.00 L 159.00 303.00 L 173.00 317.00 L 192.00 331.00 L 212.00 341.00 L 214.00 341.00 L 221.00 344.00 L 224.00 344.00 L 228.00 346.00 L 232.00 346.00 L 233.00 347.00 L 238.00 347.00 L 239.00 348.00 L 244.00 348.00 L 245.00 349.00 L 254.00 349.00 L 255.00 350.00 L 277.00 350.00 L 278.00 349.00 L 287.00 349.00 L 288.00 348.00 L 298.00 347.00 L 299.00 346.00 L 306.00 345.00 L 307.00 344.00 L 318.00 341.00 L 321.00 339.00 L 323.00 339.00 L 340.00 330.00 L 351.00 322.00 L 356.00 317.00 L 357.00 317.00 L 373.00 300.00 Z M 297.00 226.00 L 304.00 227.00 L 308.00 232.00 L 308.00 238.00 L 307.00 240.00 L 302.00 244.00 L 296.00 244.00 L 294.00 243.00 L 290.00 237.00 L 290.00 233.00 L 292.00 229.00 Z M 1287.00 189.00 L 1287.00 345.00 L 1453.00 345.00 L 1453.00 312.00 L 1452.00 311.00 L 1427.00 311.00 L 1426.00 312.00 L 1393.00 312.00 L 1392.00 311.00 L 1325.00 312.00 L 1323.00 310.00 L 1323.00 278.00 L 1324.00 277.00 L 1323.00 275.00 L 1323.00 229.00 L 1324.00 228.00 L 1323.00 224.00 L 1324.00 223.00 L 1440.00 223.00 L 1440.00 189.00 Z M 1287.00 70.00 L 1287.00 103.00 L 1449.00 103.00 L 1449.00 70.00 Z M 1045.00 70.00 L 1045.00 345.00 L 1082.00 345.00 L 1082.00 240.00 L 1083.00 239.00 L 1101.00 239.00 L 1102.00 238.00 L 1103.00 239.00 L 1150.00 239.00 L 1152.00 241.00 L 1157.00 252.00 L 1159.00 254.00 L 1162.00 261.00 L 1167.00 268.00 L 1168.00 272.00 L 1170.00 274.00 L 1178.00 289.00 L 1180.00 291.00 L 1189.00 309.00 L 1194.00 316.00 L 1197.00 323.00 L 1202.00 330.00 L 1210.00 345.00 L 1252.00 345.00 L 1249.00 339.00 L 1242.00 329.00 L 1233.00 312.00 L 1229.00 307.00 L 1226.00 300.00 L 1224.00 298.00 L 1222.00 293.00 L 1220.00 291.00 L 1218.00 286.00 L 1216.00 284.00 L 1214.00 279.00 L 1206.00 267.00 L 1204.00 262.00 L 1196.00 250.00 L 1193.00 243.00 L 1191.00 241.00 L 1188.00 235.00 L 1188.00 233.00 L 1189.00 232.00 L 1203.00 226.00 L 1209.00 221.00 L 1213.00 219.00 L 1222.00 210.00 L 1232.00 196.00 L 1239.00 181.00 L 1240.00 173.00 L 1241.00 172.00 L 1241.00 168.00 L 1242.00 167.00 L 1242.00 145.00 L 1241.00 144.00 L 1241.00 139.00 L 1240.00 138.00 L 1240.00 134.00 L 1239.00 133.00 L 1239.00 130.00 L 1238.00 129.00 L 1236.00 121.00 L 1230.00 109.00 L 1224.00 100.00 L 1213.00 89.00 L 1201.00 81.00 L 1195.00 78.00 L 1193.00 78.00 L 1188.00 75.00 L 1185.00 75.00 L 1184.00 74.00 L 1181.00 74.00 L 1180.00 73.00 L 1177.00 73.00 L 1176.00 72.00 L 1173.00 72.00 L 1168.00 70.00 Z M 1082.00 104.00 L 1083.00 103.00 L 1093.00 103.00 L 1094.00 104.00 L 1095.00 103.00 L 1097.00 104.00 L 1154.00 103.00 L 1155.00 104.00 L 1166.00 104.00 L 1167.00 105.00 L 1170.00 105.00 L 1184.00 112.00 L 1192.00 119.00 L 1198.00 127.00 L 1202.00 135.00 L 1202.00 137.00 L 1204.00 141.00 L 1204.00 144.00 L 1205.00 145.00 L 1205.00 167.00 L 1204.00 168.00 L 1202.00 176.00 L 1197.00 185.00 L 1188.00 195.00 L 1179.00 201.00 L 1177.00 201.00 L 1174.00 203.00 L 1172.00 203.00 L 1168.00 205.00 L 1164.00 205.00 L 1163.00 206.00 L 1083.00 206.00 L 1082.00 205.00 Z M 422.00 70.00 L 422.00 78.00 L 421.00 79.00 L 422.00 80.00 L 422.00 85.00 L 421.00 86.00 L 421.00 102.00 L 422.00 103.00 L 422.00 140.00 L 421.00 141.00 L 421.00 164.00 L 422.00 165.00 L 421.00 166.00 L 421.00 169.00 L 422.00 170.00 L 422.00 206.00 L 421.00 207.00 L 421.00 232.00 L 422.00 233.00 L 421.00 235.00 L 422.00 237.00 L 422.00 274.00 L 421.00 275.00 L 421.00 283.00 L 422.00 284.00 L 421.00 285.00 L 422.00 286.00 L 421.00 287.00 L 422.00 288.00 L 422.00 305.00 L 421.00 306.00 L 421.00 308.00 L 422.00 309.00 L 422.00 342.00 L 421.00 343.00 L 422.00 345.00 L 458.00 345.00 L 458.00 134.00 L 459.00 133.00 L 464.00 142.00 L 466.00 144.00 L 468.00 149.00 L 470.00 151.00 L 472.00 156.00 L 474.00 158.00 L 475.00 161.00 L 477.00 163.00 L 478.00 166.00 L 482.00 171.00 L 484.00 176.00 L 489.00 183.00 L 491.00 188.00 L 495.00 193.00 L 504.00 210.00 L 512.00 222.00 L 514.00 227.00 L 519.00 234.00 L 525.00 246.00 L 527.00 248.00 L 528.00 251.00 L 539.00 268.00 L 544.00 278.00 L 559.00 278.00 L 560.00 274.00 L 562.00 272.00 L 564.00 267.00 L 569.00 260.00 L 572.00 253.00 L 582.00 238.00 L 588.00 226.00 L 590.00 224.00 L 598.00 209.00 L 602.00 204.00 L 604.00 199.00 L 609.00 192.00 L 612.00 185.00 L 620.00 173.00 L 623.00 166.00 L 625.00 164.00 L 632.00 151.00 L 636.00 146.00 L 639.00 139.00 L 643.00 134.00 L 644.00 135.00 L 644.00 345.00 L 681.00 345.00 L 681.00 70.00 L 638.00 70.00 L 634.00 78.00 L 632.00 80.00 L 629.00 87.00 L 625.00 92.00 L 623.00 97.00 L 621.00 99.00 L 613.00 114.00 L 611.00 116.00 L 608.00 123.00 L 600.00 135.00 L 597.00 142.00 L 595.00 144.00 L 594.00 147.00 L 586.00 159.00 L 584.00 164.00 L 579.00 171.00 L 577.00 176.00 L 575.00 178.00 L 573.00 183.00 L 568.00 190.00 L 565.00 197.00 L 557.00 209.00 L 555.00 214.00 L 551.00 219.00 L 543.00 207.00 L 541.00 202.00 L 539.00 200.00 L 537.00 195.00 L 535.00 193.00 L 525.00 174.00 L 517.00 162.00 L 515.00 157.00 L 511.00 152.00 L 504.00 138.00 L 497.00 128.00 L 494.00 121.00 L 489.00 114.00 L 487.00 109.00 L 479.00 97.00 L 477.00 92.00 L 475.00 90.00 L 465.00 72.00 L 463.00 70.00 Z M 847.00 66.00 L 846.00 67.00 L 840.00 67.00 L 839.00 68.00 L 834.00 68.00 L 833.00 69.00 L 822.00 71.00 L 819.00 73.00 L 813.00 74.00 L 810.00 76.00 L 808.00 76.00 L 792.00 84.00 L 770.00 100.00 L 757.00 113.00 L 757.00 114.00 L 749.00 123.00 L 746.00 129.00 L 744.00 131.00 L 741.00 138.00 L 739.00 140.00 L 738.00 144.00 L 735.00 149.00 L 735.00 151.00 L 730.00 162.00 L 730.00 166.00 L 729.00 167.00 L 727.00 177.00 L 726.00 178.00 L 725.00 193.00 L 724.00 194.00 L 724.00 221.00 L 725.00 222.00 L 725.00 231.00 L 726.00 232.00 L 726.00 237.00 L 727.00 238.00 L 728.00 247.00 L 730.00 251.00 L 731.00 257.00 L 733.00 260.00 L 735.00 267.00 L 744.00 284.00 L 752.00 296.00 L 762.00 307.00 L 762.00 308.00 L 786.00 328.00 L 798.00 334.00 L 800.00 336.00 L 802.00 336.00 L 809.00 340.00 L 814.00 341.00 L 817.00 343.00 L 819.00 343.00 L 823.00 345.00 L 830.00 346.00 L 831.00 347.00 L 841.00 348.00 L 842.00 349.00 L 851.00 349.00 L 852.00 350.00 L 875.00 350.00 L 876.00 349.00 L 885.00 349.00 L 886.00 348.00 L 891.00 348.00 L 892.00 347.00 L 896.00 347.00 L 897.00 346.00 L 908.00 344.00 L 936.00 331.00 L 948.00 322.00 L 952.00 320.00 L 958.00 314.00 L 959.00 314.00 L 976.00 295.00 L 989.00 274.00 L 989.00 272.00 L 995.00 260.00 L 996.00 254.00 L 999.00 247.00 L 999.00 244.00 L 1001.00 239.00 L 1001.00 235.00 L 1002.00 234.00 L 1002.00 229.00 L 1003.00 228.00 L 1003.00 221.00 L 1004.00 220.00 L 1004.00 198.00 L 1003.00 197.00 L 1003.00 188.00 L 1002.00 187.00 L 1001.00 176.00 L 999.00 172.00 L 998.00 165.00 L 997.00 164.00 L 994.00 153.00 L 984.00 133.00 L 978.00 125.00 L 977.00 122.00 L 969.00 113.00 L 969.00 112.00 L 950.00 94.00 L 935.00 84.00 L 919.00 76.00 L 917.00 76.00 L 912.00 73.00 L 909.00 73.00 L 906.00 71.00 L 899.00 70.00 L 895.00 68.00 L 881.00 67.00 L 880.00 66.00 L 865.00 66.00 L 864.00 65.00 L 863.00 66.00 L 862.00 65.00 L 861.00 66.00 Z M 854.00 100.00 L 874.00 100.00 L 875.00 101.00 L 881.00 101.00 L 882.00 102.00 L 886.00 102.00 L 887.00 103.00 L 894.00 104.00 L 897.00 106.00 L 899.00 106.00 L 907.00 110.00 L 909.00 110.00 L 911.00 112.00 L 918.00 115.00 L 930.00 124.00 L 944.00 139.00 L 946.00 143.00 L 953.00 152.00 L 957.00 160.00 L 957.00 162.00 L 959.00 165.00 L 959.00 167.00 L 963.00 177.00 L 963.00 181.00 L 965.00 186.00 L 965.00 192.00 L 966.00 193.00 L 966.00 200.00 L 967.00 201.00 L 967.00 215.00 L 966.00 216.00 L 966.00 224.00 L 965.00 225.00 L 965.00 230.00 L 964.00 231.00 L 963.00 239.00 L 962.00 240.00 L 959.00 251.00 L 955.00 258.00 L 955.00 260.00 L 944.00 277.00 L 926.00 295.00 L 916.00 302.00 L 899.00 310.00 L 896.00 310.00 L 895.00 311.00 L 888.00 312.00 L 887.00 313.00 L 875.00 314.00 L 874.00 315.00 L 852.00 315.00 L 851.00 314.00 L 846.00 314.00 L 845.00 313.00 L 841.00 313.00 L 836.00 311.00 L 832.00 311.00 L 817.00 305.00 L 800.00 294.00 L 784.00 278.00 L 775.00 265.00 L 767.00 248.00 L 767.00 246.00 L 764.00 239.00 L 764.00 236.00 L 763.00 235.00 L 762.00 224.00 L 761.00 223.00 L 761.00 212.00 L 760.00 211.00 L 760.00 207.00 L 761.00 206.00 L 761.00 193.00 L 762.00 192.00 L 762.00 186.00 L 764.00 181.00 L 764.00 177.00 L 765.00 176.00 L 767.00 168.00 L 769.00 165.00 L 769.00 163.00 L 771.00 160.00 L 771.00 158.00 L 780.00 143.00 L 800.00 122.00 L 811.00 114.00 L 827.00 106.00 L 829.00 106.00 L 833.00 104.00 L 836.00 104.00 L 841.00 102.00 L 845.00 102.00 L 846.00 101.00 L 853.00 101.00 Z M 381.00 128.00 L 372.00 114.00 L 355.00 97.00 L 339.00 85.00 L 321.00 76.00 L 319.00 76.00 L 316.00 74.00 L 314.00 74.00 L 304.00 70.00 L 301.00 70.00 L 297.00 68.00 L 285.00 67.00 L 284.00 66.00 L 272.00 66.00 L 271.00 65.00 L 270.00 66.00 L 268.00 65.00 L 267.00 66.00 L 251.00 66.00 L 250.00 67.00 L 236.00 68.00 L 235.00 69.00 L 231.00 69.00 L 230.00 70.00 L 227.00 70.00 L 226.00 71.00 L 218.00 73.00 L 215.00 75.00 L 210.00 76.00 L 201.00 81.00 L 199.00 81.00 L 179.00 94.00 L 162.00 110.00 L 162.00 111.00 L 157.00 116.00 L 152.00 124.00 L 149.00 127.00 L 138.00 147.00 L 138.00 149.00 L 134.00 157.00 L 133.00 163.00 L 130.00 170.00 L 130.00 175.00 L 129.00 176.00 L 128.00 186.00 L 127.00 187.00 L 127.00 194.00 L 126.00 195.00 L 42.00 195.00 L 40.00 193.00 L 37.00 187.00 L 33.00 184.00 L 31.00 184.00 L 30.00 183.00 L 22.00 183.00 L 17.00 185.00 L 13.00 189.00 L 10.00 196.00 L 10.00 199.00 L 13.00 207.00 L 16.00 210.00 L 22.00 213.00 L 30.00 213.00 L 34.00 211.00 L 39.00 206.00 L 40.00 203.00 L 42.00 201.00 L 251.00 201.00 L 257.00 210.00 L 263.00 213.00 L 270.00 213.00 L 276.00 210.00 L 280.00 205.00 L 280.00 203.00 L 281.00 202.00 L 281.00 194.00 L 278.00 188.00 L 273.00 184.00 L 271.00 184.00 L 270.00 183.00 L 262.00 183.00 L 255.00 187.00 L 252.00 193.00 L 250.00 195.00 L 165.00 195.00 L 164.00 194.00 L 165.00 186.00 L 167.00 181.00 L 168.00 172.00 L 171.00 166.00 L 171.00 164.00 L 175.00 154.00 L 185.00 139.00 L 191.00 133.00 L 191.00 132.00 L 205.00 119.00 L 214.00 113.00 L 228.00 106.00 L 234.00 105.00 L 238.00 103.00 L 246.00 102.00 L 247.00 101.00 L 257.00 101.00 L 258.00 100.00 L 274.00 100.00 L 275.00 101.00 L 285.00 101.00 L 286.00 102.00 L 293.00 103.00 L 294.00 104.00 L 305.00 107.00 L 317.00 113.00 L 328.00 121.00 L 341.00 134.00 L 350.00 147.00 L 358.00 143.00 L 373.00 133.00 L 380.00 130.00 Z M 264.00 189.00 L 269.00 189.00 L 271.00 190.00 L 275.00 195.00 L 275.00 201.00 L 274.00 203.00 L 269.00 207.00 L 264.00 207.00 L 258.00 202.00 L 258.00 194.00 Z M 23.00 189.00 L 30.00 190.00 L 34.00 194.00 L 34.00 196.00 L 35.00 197.00 L 34.00 202.00 L 28.00 207.00 L 23.00 207.00 L 21.00 206.00 L 17.00 202.00 L 17.00 200.00 L 16.00 199.00 L 17.00 194.00 Z M 851.00 21.00 L 851.00 29.00 L 853.00 33.00 L 858.00 38.00 L 862.00 40.00 L 869.00 40.00 L 874.00 38.00 L 879.00 33.00 L 880.00 30.00 L 882.00 28.00 L 1189.00 28.00 L 1227.00 66.00 L 1227.00 67.00 L 1229.00 68.00 L 1229.00 69.00 L 1247.00 87.00 L 1247.00 88.00 L 1290.00 132.00 L 1291.00 134.00 L 1290.00 136.00 L 1290.00 146.00 L 1291.00 147.00 L 1291.00 149.00 L 1297.00 155.00 L 1301.00 157.00 L 1308.00 157.00 L 1314.00 154.00 L 1317.00 151.00 L 1320.00 144.00 L 1320.00 140.00 L 1319.00 139.00 L 1318.00 134.00 L 1313.00 129.00 L 1309.00 127.00 L 1299.00 127.00 L 1295.00 129.00 L 1265.00 98.00 L 1265.00 97.00 L 1262.00 95.00 L 1262.00 94.00 L 1246.00 78.00 L 1246.00 77.00 L 1243.00 75.00 L 1240.00 71.00 L 1212.00 43.00 L 1212.00 42.00 L 1199.00 29.00 L 1200.00 28.00 L 1421.00 28.00 L 1423.00 33.00 L 1428.00 38.00 L 1432.00 40.00 L 1440.00 40.00 L 1444.00 38.00 L 1449.00 33.00 L 1451.00 29.00 L 1451.00 21.00 L 1446.00 13.00 L 1440.00 10.00 L 1432.00 10.00 L 1426.00 13.00 L 1424.00 15.00 L 1421.00 22.00 L 881.00 22.00 L 879.00 17.00 L 874.00 12.00 L 870.00 10.00 L 862.00 10.00 L 857.00 12.00 L 854.00 15.00 Z M 1304.00 132.00 L 1310.00 134.00 L 1314.00 140.00 L 1313.00 146.00 L 1307.00 151.00 L 1302.00 151.00 L 1300.00 150.00 L 1296.00 146.00 L 1296.00 144.00 L 1295.00 143.00 L 1297.00 136.00 L 1299.00 134.00 Z M 1433.00 16.00 L 1439.00 16.00 L 1445.00 21.00 L 1445.00 28.00 L 1444.00 30.00 L 1439.00 34.00 L 1433.00 34.00 L 1431.00 33.00 L 1427.00 28.00 L 1427.00 22.00 L 1428.00 20.00 Z M 861.00 17.00 L 863.00 16.00 L 869.00 16.00 L 874.00 20.00 L 875.00 22.00 L 875.00 28.00 L 871.00 33.00 L 869.00 33.00 L 868.00 34.00 L 863.00 34.00 L 858.00 30.00 L 857.00 28.00 L 857.00 22.00 Z" fill="#000000" stroke="none" fill-rule="evenodd"/>
</svg>
